{
    "accessors": [
        {
            "bufferView": 0,
            "byteOffset": 0,
            "componentType": 5126,
            "count": 1984,
            "max": [
                0.9999998211860657,
                1.0,
                1.0
            ],
            "min": [
                -1.000000238418579,
                -1.0,
                -1.0000003576278687
            ],
            "name": "accessor_buffer_Sphere_POSITION_0",
            "type": "VEC3"
        },
        {
            "bufferView": 1,
            "byteOffset": 0,
            "componentType": 5126,
            "count": 1984,
            "max": [
                0.9904382228851318,
                0.9951386451721191,
                0.9904382824897766
            ],
            "min": [
                -0.9904382228851318,
                -0.9951384663581848,
                -0.9904382824897766
            ],
            "name": "accessor_buffer_Sphere_NORMAL_0",
            "type": "VEC3"
        },
        {
            "bufferView": 2,
            "byteOffset": 0,
            "componentType": 5126,
            "count": 1984,
            "max": [
                1.0,
                1.0
            ],
            "min": [
                0.0,
                0.0
            ],
            "name": "accessor_buffer_Sphere_TEXCOORD_0_0",
            "type": "VEC2"
        },
        {
            "bufferView": 3,
            "byteOffset": 0,
            "componentType": 5123,
            "count": 2880,
            "max": [
                1983
            ],
            "min": [
                0
            ],
            "name": "accessor_buffer_Sphere_0",
            "type": "SCALAR"
        }
    ],
    "asset": {
        "copyright": "",
        "generator": "blendergltf v1.2.0",
        "version": "2.0"
    },
    "bufferViews": [
        {
            "buffer": 0,
            "byteLength": 23808,
            "byteOffset": 0,
            "byteStride": 12,
            "name": "bufferView_buffer_Sphere_POSITION_0",
            "target": 34962
        },
        {
            "buffer": 0,
            "byteLength": 23808,
            "byteOffset": 23808,
            "byteStride": 12,
            "name": "bufferView_buffer_Sphere_NORMAL_0",
            "target": 34962
        },
        {
            "buffer": 0,
            "byteLength": 15872,
            "byteOffset": 47616,
            "byteStride": 8,
            "name": "bufferView_buffer_Sphere_TEXCOORD_0_0",
            "target": 34962
        },
        {
            "buffer": 0,
            "byteLength": 5764,
            "byteOffset": 63488,
            "name": "bufferView_buffer_Sphere_0",
            "target": 34963
        }
    ],
    "buffers": [
        {
            "byteLength": 69252,
            "name": "buffer_sphere",
            "uri": "buffer_sphere.bin"
        }
    ],
    "images" : [
        {
            "uri" : "albedo.png"
        },
        {
            "uri" : "ao.png"
        },
        {
            "uri" : "roughness.png"
        },
        {
            "uri" : "normal.png"
        }
    ],
    "materials" : [
        {
            "name" : "Material_MR",
            "normalTexture" : {
                "index" : 3
            },
            "occlusionTexture" : {
                "index" : 1
            },
            "pbrMetallicRoughness" : {
                "baseColorTexture" : {
                    "index" : 0
                },
                "metallicRoughnessTexture" : {
                    "index" : 2
                }
            }
        }
    ],
    "cameras": [
        {
            "name": "Camera",
            "perspective": {
                "aspectRatio": 1.703595982340029,
                "yfov": 0.5033799409866333,
                "zfar": 100.0,
                "znear": 0.10000000149011612
            },
            "type": "perspective"
        }
    ],
    "meshes": [
        {
            "name": "Sphere",
            "primitives": [
                {
                    "attributes": {
                        "NORMAL": 1,
                        "POSITION": 0,
                        "TEXCOORD_0": 2
                    },
                    "indices": 3,
                    "mode": 4,                    
                    "material" : 0
                }
            ]
        }
    ],
    "nodes": [
        {
            "camera": 0,
            "name": "Camera",
            "rotation": [
                -0.09062843769788742,
                -0.8937962651252747,
                -0.2099730223417282,
                0.38578000664711
            ],
            "scale": [
                1.0,
                1.0,
                1.0
            ],
            "translation": [
                -7.481131553649902,
                5.34366512298584,
                -6.5076398849487305
            ]
        },
        {
            "name": "Lamp",
            "rotation": [
                -0.34203386306762695,
                -0.5232755541801453,
                -0.2841663062572479,
                0.7269423007965088
            ],
            "scale": [
                1.0,
                1.0,
                0.9999999403953552
            ],
            "translation": [
                -4.076245307922363,
                5.903861999511719,
                1.0054539442062378
            ]
        },
        {
            "mesh": 0,
            "name": "Sphere",
            "rotation": [
                0.0,
                0.0,
                0.0,
                1.0
            ],
            "scale": [
                1.0,
                1.0,
                1.0
            ],
            "translation": [
                0.0,
                0.0,
                0.0
            ]
        }
    ],
    "samplers" : [
        {}
    ],
    "scene": 0,
    "scenes": [
        {
            "extras": {
                "active_camera": 0,
                "background_color": [
                    0.05087608844041824,
                    0.05087608844041824,
                    0.05087608844041824
                ],
                "frames_per_second": 24
            },
            "name": "Scene",
            "nodes": [
                2,
                1,
                0
            ]
        }
    ],
    "textures" : [
        {
            "sampler" : 0,
            "source" : 0
        },
        {
            "sampler" : 0,
            "source" : 1
        },
        {
            "sampler" : 0,
            "source" : 2
        },
        {
            "sampler" : 0,
            "source" : 3
        }
    ]
}
